Results
version=1
nRows=26
nColumns=24
inDegrees=yes
endheader
time	pelvis_tilt	pelvis_list	pelvis_rotation	pelvis_tx	pelvis_ty	pelvis_tz	hip_flexion_r	hip_adduction_r	hip_rotation_r	knee_angle_r	ankle_angle_r	subtalar_angle_r	mtp_angle_r	hip_flexion_l	hip_adduction_l	hip_rotation_l	knee_angle_l	ankle_angle_l	subtalar_angle_l	mtp_angle_l	lumbar_extension	lumbar_bending	lumbar_rotation
      1.18666667	     -6.58079745	      4.57853813	      0.30045857	      0.20226468	      0.99197379	      0.28592711	     28.37011700	     -5.28784846	     -0.48233117	    -71.28371499	     -2.61353864	     -9.90251540	      2.61166491	     15.42029623	      9.63536228	      1.70168091	    -10.74100927	      0.13046813	    -10.29827087	      1.49851932	      2.81875636	     -1.91768048	      3.99003418
      1.19083333	     -6.51727402	      4.49105934	      0.32362887	      0.20736733	      0.99284536	      0.28584395	     28.86562190	     -5.13017143	     -0.40191200	    -71.03549366	     -1.99085428	    -10.24810889	     -0.24574852	     14.87614261	      9.55607970	      1.80734779	    -10.47387470	      0.25499472	    -10.22337061	      0.38406704	      2.72782679	     -1.81829032	      3.88151479
      1.19500000	     -6.48788982	      4.40303638	      0.33801937	      0.21243778	      0.99361364	      0.28576071	     29.38784412	     -4.97232098	     -0.31187255	    -70.72543764	     -1.37568495	    -10.49410738	     -0.24416422	     14.38551769	      9.47487975	      1.90775598	    -10.23625399	      0.38969113	    -10.20117638	      0.38578199	      2.66670855	     -1.71622212	      3.87555385
      1.19916667	     -6.41270377	      4.32839521	      0.35626441	      0.21753760	      0.99444174	      0.28568402	     29.83419213	     -4.83504292	     -0.23571656	    -70.34286688	     -0.79102289	    -10.85993928	     -0.25706309	     13.83026418	      9.40761680	      2.01900557	     -9.96729097	      0.50039678	    -10.17888353	      0.37934155	      2.56035111	     -1.63423200	      3.83409915
      1.20333333	     -6.34746906	      4.23207697	      0.37859416	      0.22262307	      0.99522878	      0.28561604	     30.26760431	     -4.67527537	     -0.17250939	    -69.88757623	     -0.20881720	    -11.16434958	     -0.27508906	     13.29561883	      9.31610263	      2.13206088	     -9.71750846	      0.61667466	    -10.15583725	      0.36717122	      2.46120102	     -1.52684879	      3.78753209
      1.20750000	     -6.32325956	      4.12536450	      0.40177522	      0.22770035	      0.99591883	      0.28555665	     30.72585045	     -4.50640349	     -0.11578445	    -69.36719971	      0.36827350	    -11.39395593	     -0.28426235	     12.81649909	      9.21158890	      2.23363681	     -9.48808726	      0.73502358	    -10.13982413	      0.35863699	      2.41787608	     -1.39781526	      3.75950549
      1.21166667	     -6.23827815	      4.04317580	      0.42555476	      0.23277496	      0.99667766	      0.28551100	     31.09796758	     -4.36351395	     -0.05751561	    -68.78517926	      0.90255787	    -11.76137950	     -0.31954131	     12.25886262	      9.13321367	      2.36430351	     -9.22975113	      0.84850064	    -10.13167983	      0.33437276	      2.28946064	     -1.31987493	      3.69137285
      1.21583333	     -6.19492142	      3.92888786	      0.45521808	      0.23784851	      0.99735531	      0.28547631	     31.48548738	     -4.18908053	     -0.01772769	    -68.12535373	      1.44003765	    -12.01057522	     -0.34425574	     11.76230555	      9.01863932	      2.48155744	     -9.00475875	      0.96293869	    -10.12900478	      0.31614594	      2.22038026	     -1.19890219	      3.65557271
      1.22000000	     -6.12246774	      3.84029408	      0.48252068	      0.24292481	      0.99801035	      0.28543163	     31.82899713	     -4.04867533	      0.01936789	    -67.42111347	      1.91661765	    -12.36976725	     -0.40013940	     11.22140818	      8.93208720	      2.61293890	     -8.75067536	      1.08314068	    -10.13545116	      0.28010613	      2.10975321	     -1.09916982	      3.58447243
      1.22416667	     -6.10297294	      3.74074741	      0.51862950	      0.24797769	      0.99855492	      0.28539636	     32.20665823	     -3.89815846	      0.04935794	    -66.65234576	      2.40607324	    -12.59544267	     -0.43055817	     10.75851557	      8.83244225	      2.73257066	     -8.53722073	      1.20173954	    -10.13888432	      0.25985527	      2.06589181	     -0.99349909	      3.55281334
      1.22833333	     -6.01073201	      3.64303224	      0.54830228	      0.25305772	      0.99918144	      0.28536954	     32.47841733	     -3.75100473	      0.07036775	    -65.81627288	      2.80648273	    -12.98017552	     -0.51106725	     10.19471961	      8.73293127	      2.87118247	     -8.27826080	      1.32174308	    -10.15600928	      0.21307187	      1.92842561	     -0.89022457	      3.47013285
      1.23250000	     -5.99288307	      3.54800376	      0.59244265	      0.25810471	      0.99964246	      0.28533591	     32.81322982	     -3.61361966	      0.08297684	    -64.93110966	      3.23388971	    -13.21498550	     -0.55656665	      9.73678335	      8.63724756	      2.99887975	     -8.06856557	      1.44421893	    -10.17068986	      0.18715170	      1.88996583	     -0.79072681	      3.43518728
      1.23666667	     -5.90589457	      3.47275114	      0.62626869	      0.26317793	      1.00017032	      0.28531300	     33.05139995	     -3.49751179	      0.09534327	    -63.98962285	      3.56267233	    -13.59703961	     -0.65858852	      9.17718513	      8.56004597	      3.14322009	     -7.80387315	      1.55846514	    -10.20905761	      0.13273407	      1.75838304	     -0.71461747	      3.34863796
      1.24083333	     -5.89967932	      3.36529753	      0.67760750	      0.26822473	      1.00054141	      0.28528173	     33.35082055	     -3.35636685	      0.08090431	    -62.98714144	      3.91453790	    -13.82471850	     -0.71279890	      8.73120816	      8.44864996	      3.27692514	     -7.59150359	      1.68852541	    -10.22079735	      0.10568936	      1.71891529	     -0.60235719	      3.31524613
      1.24500000	     -5.80542887	      3.29960245	      0.71574629	      0.27329313	      1.00099823	      0.28526452	     33.53430059	     -3.25435836	      0.08521272	    -61.93230438	      4.16012451	    -14.22640314	     -0.83489383	      8.16640994	      8.37934646	      3.41980426	     -7.33086546	      1.80570091	    -10.25959529	      0.04728760	      1.58746614	     -0.53650218	      3.21941041
      1.24916667	     -5.80405732	      3.21321692	      0.77383570	      0.27831804	      1.00125994	      0.28523924	     33.79782870	     -3.13839969	      0.06991687	    -60.82999058	      4.44789481	    -14.45814324	     -0.90420909	      7.73173437	      8.28860820	      3.55916554	     -7.12898003	      1.93702393	    -10.27674201	      0.01607934	      1.56218877	     -0.44840651	      3.18176795
      1.25333333	     -5.75295579	      3.13654641	      0.82596231	      0.28337282	      1.00156493	      0.28521708	     33.98190514	     -3.03685119	      0.04386571	    -59.67222372	      4.65210694	    -14.78398875	     -0.99885515	      7.22296368	      8.20592845	      3.69926865	     -6.88596629	      2.06483646	    -10.30490174	     -0.02429303	      1.47038041	     -0.37214141	      3.11205022
      1.25750000	     -5.69244656	      3.09674934	      0.86890292	      0.28841959	      1.00182319	      0.28520883	     34.14494765	     -2.96813820	      0.03680910	    -58.48187458	      4.78195565	    -15.15441370	     -1.15759053	      6.69518018	      8.16065749	      3.83346916	     -6.62247213	      2.17983457	    -10.34539906	     -0.09275409	      1.37361587	     -0.34207066	      3.00590725
      1.26166667	     -5.69479050	      3.01932398	      0.93933718	      0.29345127	      1.00197088	      0.28517546	     34.34051127	     -2.87668912	     -0.00919857	    -57.22657392	      4.95790072	    -15.36085563	     -1.24806014	      6.26041468	      8.07647828	      3.97234267	     -6.41230016	      2.31097388	    -10.35152442	     -0.12926294	      1.34567864	     -0.26341900	      2.96464412
      1.26583333	     -5.62913921	      2.98827789	      0.98103906	      0.29850077	      1.00215264	      0.28517733	     34.45416660	     -2.81982394	     -0.02653341	    -55.94535597	      5.02072174	    -15.72160708	     -1.44095179	      5.72098144	      8.03663613	      4.09061434	     -6.13639139	      2.43082272	    -10.37652371	     -0.20812153	      1.23590798	     -0.24604830	      2.85094290
      1.27000000	     -5.59750105	      2.93457782	      1.04311296	      0.30354732	      1.00225687	      0.28516495	     34.57147376	     -2.75268203	     -0.07532732	    -54.60590825	      5.09740895	    -15.97376047	     -1.63638874	      5.23380939	      7.97265633	      4.20901032	     -5.89325056	      2.56459206	    -10.38472380	     -0.28691644	      1.16767187	     -0.20159458	      2.76664344
      1.27416667	     -5.60057851	      2.87845241	      1.11943625	      0.30858478	      1.00228269	      0.28513094	     34.70188101	     -2.69330266	     -0.13999798	    -53.22391406	      5.18567397	    -16.11434514	     -1.73545630	      4.79534645	      7.90724960	      4.32670944	     -5.67422669	      2.69561695	    -10.36645658	     -0.32443009	      1.15013284	     -0.13804015	      2.72835576
      1.27833333	     -5.54558776	      2.85347397	      1.16571575	      0.31364098	      1.00232944	      0.28515102	     34.75864917	     -2.64778264	     -0.17709008	    -51.81763691	      5.17167573	    -16.38755634	     -1.93779635	      4.26874970	      7.86840304	      4.40794465	     -5.40049317	      2.82659502	    -10.35972395	     -0.40356298	      1.04409679	     -0.13745102	      2.60892514
      1.28250000	     -5.56384141	      2.81688470	      1.24503498	      0.31867438	      1.00222991	      0.28512677	     34.86910912	     -2.61485003	     -0.25499611	    -50.37347746	      5.20889586	    -16.47101400	     -2.04384425	      3.84656975	      7.82081671	      4.49862171	     -5.17992815	      2.95997219	    -10.33852486	     -0.44379398	      1.03780069	     -0.11169939	      2.56549205
      1.28666667	     -5.49516743	      2.80278738	      1.29348374	      0.32374751	      1.00223504	      0.28514767	     34.86451925	     -2.58488582	     -0.30095287	    -48.89430488	      5.16857135	    -16.64976624	     -2.26024526	      3.30131247	      7.79021443	      4.55956215	     -4.90131662	      3.09166935	    -10.29505185	     -0.53093229	      0.92396299	     -0.11176781	      2.43912766
      1.29083333	     -5.52328339	      2.78233278	      1.36679529	      0.32878731	      1.00203331	      0.28514085	     34.94760772	     -2.56674268	     -0.37822916	    -47.39206134	      5.15709828	    -16.65417480	     -2.36309698	      2.88899135	      7.75716248	      4.61932742	     -4.67970479	      3.22764095	    -10.26013277	     -0.57155061	      0.92917959	     -0.10597855	      2.39854011
